<?xml version="1.0" standalone="no"?>
<!DOCTYPE svg PUBLIC "-//W3C//DTD SVG 20010904//EN"
 "http://www.w3.org/TR/2001/REC-SVG-20010904/DTD/svg10.dtd">
<svg version="1.0" xmlns="http://www.w3.org/2000/svg"
 width="225.000000pt" height="225.000000pt" viewBox="0 0 225.000000 225.000000"
 preserveAspectRatio="xMidYMid meet">
<metadata>
Created by potrace 1.11, written by Peter Selinger 2001-2013
</metadata>
<g transform="translate(0.000000,225.000000) scale(0.100000,-0.100000)"
fill="#000000" stroke="none">
<path d="M553 1988 c2 -13 14 -70 26 -128 29 -142 25 -134 62 -115 17 9 32 15
33 13 7 -8 186 -299 211 -341 l28 -48 -26 -27 c-54 -58 -96 -180 -83 -243 6
-31 35 -18 -262 -119 l-173 -59 -11 29 c-5 17 -14 30 -19 30 -11 0 -217 -162
-218 -171 -1 -7 261 -24 269 -18 3 2 5 16 6 31 0 15 3 30 5 33 7 6 364 113
404 121 23 4 33 0 43 -16 18 -29 7 -40 -37 -40 -52 0 -71 -23 -71 -87 0 -57 7
-63 71 -63 52 0 83 30 75 71 -8 41 13 46 62 14 21 -14 71 -33 110 -42 l70 -17
18 -115 c14 -87 15 -116 6 -119 -28 -9 -54 -40 -54 -63 0 -24 132 -230 152
-237 5 -2 14 16 20 40 6 24 22 77 36 118 13 41 24 85 24 98 0 25 -29 54 -63
62 -19 5 -24 16 -34 85 -18 125 -17 152 9 160 24 8 23 10 127 -140 69 -100 69
-101 53 -128 -22 -36 -14 -46 86 -106 l84 -50 -7 74 c-13 133 -15 139 -60 145
-37 5 -43 10 -92 90 -29 47 -62 104 -75 126 l-22 42 37 43 c44 51 79 153 75
217 -3 52 -12 46 152 102 l126 44 31 -23 32 -24 75 69 c71 65 87 84 69 84 -5
0 -48 7 -98 15 -88 15 -90 14 -107 -6 -10 -12 -18 -29 -18 -38 0 -18 -2 -19
-207 -76 l-82 -23 -14 22 c-14 21 -11 25 70 100 66 60 88 75 98 66 19 -15 71
-16 89 -1 9 7 24 37 35 66 11 30 34 84 51 121 16 37 28 69 26 71 -2 3 -39 -7
-83 -20 -43 -13 -102 -30 -131 -37 -62 -14 -77 -34 -68 -94 l7 -42 -83 -70
-83 -71 -35 23 c-34 22 -135 54 -172 54 -21 0 -24 27 -4 49 33 38 30 60 -15
102 -23 21 -48 39 -54 39 -14 0 -57 -54 -68 -83 -8 -23 11 -65 34 -72 20 -7
33 -35 22 -46 -4 -4 -19 -10 -33 -13 -23 -6 -35 8 -152 183 l-128 189 28 21
27 21 -26 22 c-40 35 -197 148 -204 148 -4 0 -5 -10 -2 -22z"/>
</g>
</svg>
